<svg width="426" height="90" viewBox="0 0 426 90" fill="none" xmlns="http://www.w3.org/2000/svg">
<g clip-path="url(#clip0_2_6)">
<path d="M70 0H20C8.9543 0 0 8.9543 0 20V70C0 81.0457 8.9543 90 20 90H70C81.0457 90 90 81.0457 90 70V20C90 8.9543 81.0457 0 70 0Z" fill="#1DB954"/>
<path d="M33.009 30.85V22.5H41.519V32.397L48.481 33.557V25.438H56.991V35.103L72 37.732V46.778L18 37.268V28.222L33.009 30.85ZM72 52.733V61.779L56.991 59.15V67.5H48.481V57.603L41.519 56.443V64.562H33.009V54.897L18 52.268V43.222L72 52.732V52.733ZM114 64.202V29.894H121.871V34.947H122.334C122.863 33.351 123.612 31.977 124.582 30.824C125.597 29.672 127.008 29.096 128.815 29.096C132.122 29.096 134.151 31.046 134.9 34.946H135.297C135.562 34.149 135.892 33.396 136.289 32.686C136.686 31.977 137.171 31.356 137.744 30.825C138.342 30.2777 139.038 29.8488 139.795 29.561C140.588 29.251 141.514 29.096 142.572 29.096C147.335 29.096 149.716 32.62 149.716 39.668V64.202H141.845V40.665C141.845 39.069 141.558 37.961 140.985 37.34C140.456 36.675 139.751 36.343 138.869 36.343C138.031 36.343 137.303 36.631 136.686 37.207C136.113 37.739 135.826 38.582 135.826 39.734V64.202H127.889V40.665C127.889 39.069 127.625 37.961 127.096 37.34C126.611 36.675 125.927 36.343 125.045 36.343C124.164 36.343 123.414 36.631 122.797 37.207C122.179 37.739 121.871 38.582 121.871 39.734V64.202H114ZM171.516 65C168.87 65 166.489 64.601 164.373 63.803C162.256 62.961 160.449 61.764 158.949 60.213C157.494 58.661 156.37 56.778 155.576 54.561C154.783 52.345 154.386 49.841 154.386 47.048C154.386 44.255 154.783 41.751 155.576 39.535C156.37 37.318 157.494 35.435 158.949 33.883C160.449 32.332 162.256 31.157 164.373 30.359C166.489 29.517 168.87 29.096 171.516 29.096C174.162 29.096 176.543 29.516 178.659 30.359C180.776 31.157 182.561 32.332 184.016 33.883C185.516 35.434 186.662 37.318 187.456 39.535C188.249 41.751 188.646 44.255 188.646 47.048C188.646 49.84 188.249 52.345 187.456 54.561C186.662 56.778 185.516 58.661 184.016 60.213C182.561 61.764 180.776 62.961 178.659 63.803C176.543 64.601 174.162 65 171.516 65ZM171.516 57.686C173.721 57.686 175.44 56.999 176.675 55.625C177.91 54.251 178.527 52.3 178.527 49.774V44.322C178.527 41.795 177.91 39.845 176.675 38.471C175.44 37.097 173.721 36.41 171.516 36.41C169.311 36.41 167.592 37.097 166.357 38.47C165.122 39.845 164.505 41.795 164.505 44.322V49.774C164.505 52.3 165.122 54.251 166.357 55.625C167.592 56.999 169.311 57.686 171.516 57.686ZM217.325 57.952H216.862C215.98 60.036 214.746 61.742 213.158 63.072C211.615 64.357 209.477 65 206.743 65C204.847 65 203.105 64.645 201.518 63.936C199.974 63.227 198.63 62.141 197.483 60.678C196.381 59.215 195.499 57.354 194.838 55.093C194.22 52.833 193.912 50.151 193.912 47.048C193.912 43.945 194.22 41.263 194.838 39.003C195.499 36.742 196.381 34.88 197.483 33.418C198.63 31.955 199.974 30.868 201.518 30.16C203.105 29.45 204.847 29.096 206.743 29.096C208.11 29.096 209.322 29.273 210.38 29.628C211.439 29.982 212.365 30.47 213.158 31.09C213.995 31.7092 214.712 32.4753 215.275 33.351C215.907 34.2196 216.439 35.1565 216.862 36.144H217.325V15H227.114V64.202H217.325V57.952ZM210.976 57.354C212.695 57.354 214.172 56.933 215.407 56.09C216.686 55.248 217.325 53.918 217.325 52.101V41.995C217.325 40.177 216.686 38.847 215.407 38.005C214.172 37.163 212.695 36.742 210.976 36.742C208.771 36.742 207.073 37.429 205.883 38.803C204.692 40.133 204.097 41.995 204.097 44.388V49.708C204.097 52.101 204.692 53.985 205.883 55.359C207.073 56.689 208.771 57.354 210.976 57.354ZM256.587 57.952H256.19C255.44 59.902 254.25 61.565 252.618 62.939C251.031 64.313 248.87 65 246.136 65C244.505 65 243.006 64.734 241.639 64.202C240.292 63.6404 239.092 62.776 238.133 61.676C237.163 60.567 236.392 59.216 235.819 57.62C235.289 56.024 235.025 54.184 235.025 52.101V29.894H244.814V50.77C244.814 55.203 246.732 57.42 250.568 57.42C251.317 57.42 252.045 57.33 252.75 57.153C253.5 56.932 254.139 56.621 254.668 56.223C255.233 55.7896 255.706 55.2468 256.057 54.627C256.41 54.007 256.587 53.275 256.587 52.433V29.893H266.375V64.201H256.587V57.952ZM275.146 56.556H285.596V22.646H275.146V15H295.385V56.556H305.835V64.202H275.146V56.556ZM342.517 64.202C340.489 64.202 338.857 63.692 337.622 62.672C336.388 61.609 335.66 60.102 335.44 58.152H335.109C334.492 60.412 333.257 62.119 331.405 63.272C329.597 64.424 327.371 65 324.725 65C321.418 65 318.751 64.114 316.722 62.34C314.738 60.523 313.746 57.996 313.746 54.76C313.746 51.17 315.047 48.51 317.648 46.782C320.25 45.053 324.064 44.189 329.09 44.189H334.58V42.46C334.58 40.421 334.095 38.892 333.125 37.872C332.199 36.809 330.612 36.277 328.363 36.277C326.29 36.277 324.615 36.675 323.336 37.473C322.04 38.2879 320.916 39.3497 320.029 40.598L314.672 35.811C315.818 33.861 317.604 32.265 320.029 31.024C322.498 29.738 325.651 29.096 329.487 29.096C334.161 29.096 337.799 30.182 340.4 32.354C343.046 34.481 344.369 37.717 344.369 42.061V57.088H348.139V64.202H342.517ZM328.429 58.551C330.149 58.551 331.604 58.129 332.794 57.287C333.985 56.445 334.58 55.227 334.58 53.63V49.508H329.355C325.342 49.508 323.336 50.86 323.336 53.564V54.894C323.336 56.09 323.799 56.999 324.725 57.62C325.651 58.24 326.886 58.551 328.429 58.551ZM372.452 64.202C368.925 64.202 366.301 63.272 364.582 61.41C362.862 59.548 362.002 57.176 362.002 54.295V37.54H352.743V29.894H358.761C360.217 29.894 361.253 29.606 361.87 29.029C362.487 28.453 362.796 27.389 362.796 25.838V17.793H371.791V29.893H385.085V37.54H371.791V56.556H385.085V64.202H372.452ZM410.391 65C404.659 65 400.316 63.404 397.361 60.213C394.407 57.021 392.93 52.677 392.93 47.181C392.93 44.388 393.305 41.884 394.054 39.668C394.848 37.407 395.95 35.501 397.361 33.95C398.801 32.3644 400.59 31.1351 402.586 30.359C404.659 29.517 406.974 29.096 409.531 29.096C412.089 29.096 414.381 29.516 416.41 30.359C418.438 31.157 420.158 32.309 421.569 33.816C422.98 35.324 424.06 37.163 424.809 39.336C425.603 41.463 426 43.856 426 46.516V49.441H402.653V50.04C402.653 52.256 403.336 54.051 404.703 55.426C406.07 56.756 408.076 57.42 410.722 57.42C412.75 57.42 414.492 57.043 415.947 56.29C417.392 55.4998 418.672 54.4388 419.717 53.165L425.008 58.95C423.685 60.59 421.833 62.008 419.452 63.205C417.071 64.402 414.051 65 410.391 65ZM409.597 36.144C407.481 36.144 405.783 36.809 404.504 38.138C403.27 39.424 402.653 41.175 402.653 43.391V43.923H416.41V43.391C416.41 41.131 415.792 39.357 414.558 38.071C413.367 36.786 411.714 36.144 409.597 36.144Z" fill="white"/>
</g>
<defs>
<clipPath id="clip0_2_6">
<rect width="426" height="90" fill="white"/>
</clipPath>
</defs>
</svg>
